<!-- Created with Inkscape (http://www.inkscape.org/) -->
<svg width="306.57mm" height="98.995mm" version="1.1" viewBox="0 0 306.57 98.995" xmlns="http://www.w3.org/2000/svg">
 <g transform="translate(-38.43 -380.3)">
  <g stroke-width=".26458">
   <g fill="#f47421" aria-label="moodle">
    <path d="m65.656 402q0-0.53399-0.03445-0.99908t-0.12058-0.8096q-0.18948-0.75792-0.7407-1.223-0.55122-0.46509-1.5503-0.48231-0.53399 0-1.1024 0.15503t-1.1369 0.44786q-0.55122 0.27561-1.068 0.68902-0.49954 0.39619-0.91295 0.89573v11.489h-4.0824v-10.163q0-0.53399-0.03445-0.99908t-0.12058-0.8096q-0.18948-0.75792-0.7407-1.223-0.53399-0.46509-1.5503-0.48231-0.53399 0-1.1024 0.15503t-1.1369 0.44786q-0.55122 0.27561-1.068 0.68902-0.49954 0.39619-0.91295 0.89573v11.489h-4.0824v-16.692h3.3762l0.37896 2.3254h0.0689q0.36174-0.51677 0.91295-1.0163 0.55122-0.49953 1.2402-0.8785 0.70624-0.37896 1.5331-0.60289 0.84405-0.24115 1.7742-0.24115 1.6536 0 2.9628 0.74069 1.3264 0.72347 2.0154 2.2738h0.0689q0.48231-0.6718 1.068-1.223 0.60289-0.55122 1.3264-0.94741 0.72347-0.39618 1.5503-0.62011 0.84405-0.22393 1.7915-0.22393 1.7915 0.0172 2.9972 0.75792 1.223 0.72347 1.8776 1.9982 0.17226 0.32729 0.29283 0.72347 0.12058 0.37897 0.18948 0.86128 0.08613 0.48231 0.12058 1.068 0.03445 0.58567 0.03445 1.3436v10.353h-4.0824z"/>
    <path d="m85.913 403.83q0-1.3264-0.31006-2.3427-0.31006-1.0163-0.86127-1.7053-0.55122-0.68902-1.3264-1.0335t-1.6881-0.34451q-0.89572 0-1.6709 0.34451-0.75792 0.34451-1.3091 1.0335-0.55122 0.68902-0.86128 1.7053-0.31006 1.0163-0.31006 2.3427t0.31006 2.3427q0.31006 1.0163 0.86128 1.7053 0.56844 0.67179 1.3264 1.0335 0.77515 0.34451 1.6881 0.34451t1.6709-0.34451q0.75792-0.36174 1.3091-1.0335 0.55122-0.68902 0.86127-1.7053 0.31006-1.0163 0.31006-2.3427zm4.2202 0q0 1.9637-0.58567 3.5829-0.58567 1.6192-1.6881 2.7733-1.0852 1.1541-2.6355 1.7914-1.5503 0.62011-3.4623 0.62011-1.9637 0-3.5312-0.62011-1.5503-0.63735-2.6355-1.7914-1.0852-1.1541-1.6709-2.7733-0.56844-1.6192-0.56844-3.5829t0.58567-3.5829q0.58567-1.6192 1.6709-2.7733 1.1024-1.1541 2.6527-1.7742 1.5503-0.63734 3.4623-0.63734 1.9637 0 3.514 0.63734 1.5675 0.62012 2.6527 1.7742 1.0852 1.1541 1.6536 2.7733 0.58567 1.6192 0.58567 3.5829z"/>
    <path d="m105.45 403.83q0-1.3264-0.31006-2.3427-0.31006-1.0163-0.86127-1.7053-0.55122-0.68902-1.3264-1.0335-0.77514-0.34451-1.6881-0.34451-0.89573 0-1.6709 0.34451-0.75792 0.34451-1.3091 1.0335-0.55122 0.68902-0.86127 1.7053-0.31006 1.0163-0.31006 2.3427t0.31006 2.3427q0.31006 1.0163 0.86127 1.7053 0.56844 0.67179 1.3264 1.0335 0.77515 0.34451 1.6881 0.34451t1.6709-0.34451q0.75792-0.36174 1.3091-1.0335 0.55121-0.68902 0.86127-1.7053 0.31006-1.0163 0.31006-2.3427zm4.2202 0q0 1.9637-0.58566 3.5829-0.58567 1.6192-1.6881 2.7733-1.0852 1.1541-2.6355 1.7914-1.5503 0.62011-3.4623 0.62011-1.9637 0-3.5312-0.62011-1.5503-0.63735-2.6355-1.7914-1.0852-1.1541-1.6709-2.7733-0.56844-1.6192-0.56844-3.5829t0.58567-3.5829q0.58567-1.6192 1.6709-2.7733 1.1024-1.1541 2.6527-1.7742 1.5503-0.63734 3.4623-0.63734 1.9637 0 3.514 0.63734 1.5675 0.62012 2.6527 1.7742 1.0852 1.1541 1.6536 2.7733 0.58566 1.6192 0.58566 3.5829z"/>
    <path d="m120.47 409.34q0.6029 0 1.1369-0.15503 0.55121-0.15503 1.0335-0.41341 0.48231-0.25839 0.84405-0.56845 0.37896-0.31005 0.63734-0.60289v-7.9237q-0.72347-0.58567-1.6192-0.96463-0.89572-0.39619-1.8948-0.39619-0.63734 0-1.3436 0.25839-0.68902 0.25838-1.2747 0.8785-0.56844 0.62011-0.96462 1.7225-0.37896 1.1024-0.37896 2.8078 0 2.5149 0.96462 3.9274 0.98186 1.4125 2.8594 1.4297zm-8.0443-5.1849q0-2.1876 0.60289-3.893 0.6029-1.7226 1.6364-2.8766 1.0508-1.1713 2.3944-1.7398 1.3436-0.58566 2.7905-0.58566 0.67179 0 1.2747 0.12057 0.6029 0.12058 1.1369 0.32729 0.53399 0.2067 0.99907 0.46509 0.46509 0.25838 0.86128 0.53399h0.0345q-0.0172-0.34451-0.0345-0.96463 0-0.63734 0-1.378v-6.9419h4.0824v19.982q0 1.6536 0.0344 2.8422t0.0689 2.1187h-3.6862l-0.17226-1.7742h-0.0689q-0.36173 0.43064-0.8785 0.84405-0.49954 0.41341-1.1197 0.72347-0.60289 0.29283-1.3436 0.46509-0.72347 0.17225-1.5848 0.17225-1.3608 0-2.6183-0.48231-1.2402-0.48231-2.2393-1.4814-0.98185-1.0163-1.5847-2.6355-0.58567-1.6364-0.58567-3.8413z"/>
    <path d="m133.13 412.17v-24.943h4.0824v24.943z"/>
    <path d="m150.46 409.31q1.1886 0 2.4805-0.24116t2.6183-0.68902v3.2556q-0.79238 0.34451-2.4288 0.65456-1.6364 0.31006-3.3934 0.31006-1.7742 0-3.3762-0.44786-1.5848-0.46509-2.7733-1.4814t-1.8948-2.6355q-0.68902-1.6192-0.68902-3.9274 0-2.2738 0.65457-3.9791t1.757-2.825 2.5149-1.6709q1.4297-0.56844 2.9456-0.56844 1.5847 0 2.9111 0.48231 1.3436 0.48231 2.3082 1.5158 0.98185 1.0335 1.5158 2.67 0.55122 1.6192 0.55122 3.8413-0.0172 0.86127-0.0517 1.4642h-10.938q0.0861 1.1541 0.51676 1.9809 0.43064 0.80959 1.1197 1.3264 0.70624 0.49954 1.6364 0.74069 0.93018 0.22394 2.0154 0.22394zm-1.6364-11.059q-0.77515 0-1.378 0.29283-0.60289 0.27561-1.0508 0.77515-0.43064 0.48232-0.68902 1.1369-0.25839 0.65457-0.34451 1.3953h6.5629q0-0.7407-0.20671-1.3953-0.18948-0.65456-0.58566-1.1369-0.37896-0.49954-0.96463-0.77515-0.56844-0.29283-1.3436-0.29283z"/>
   </g>
   <g aria-label="C-Test">
    <path d="m124.16 420.05q0.47129-0.64493 1.017-0.96739 0.5705-0.32246 1.2154-0.32246 1.1162 0 1.8107 0.76895 0.71933 0.76894 0.71933 2.6045v4.316q0 1.8355-0.71933 2.6293-0.69453 0.76895-1.8107 0.76895-1.017 0-1.6371-0.57051-0.62012-0.57051-0.91778-2.1332-0.17363-1.0418-0.69453-1.6123-1.017-1.1162-2.8525-1.7859-1.8107-0.66972-3.6463-0.66972-2.282 0-4.192 0.99219-1.91 0.99218-3.3734 3.2246-1.4635 2.2324-1.4635 5.3082v3.299q0 3.6711 2.6541 6.1268 2.6789 2.4557 7.4166 2.4557 2.8277 0 4.7873-0.76894 1.141-0.44649 2.4308-1.7611 0.79375-0.79375 1.2402-1.017 0.44648-0.24804 1.017-0.24804 1.017 0 1.7859 0.76894 0.76894 0.76895 0.76894 1.8107 0 1.0418-1.0418 2.2324-1.5131 1.7363-3.8943 2.7285-3.1998 1.3394-7.0693 1.3394-4.5145 0-8.1359-1.8604-2.927-1.4883-4.9857-4.6881-2.0588-3.2246-2.0588-7.0197v-3.4478q0-3.9688 1.8355-7.3918 1.8604-3.4478 5.1346-5.3082 3.2742-1.8604 6.9453-1.8604 2.2076 0 4.1176 0.5209 1.9348 0.49609 3.5967 1.5379z"/>
    <path d="m157.33 436.72h-21.233v-4.6385h21.233z"/>
    <path d="m179.63 423.85v19.893h3.423q1.8356 0 2.6045 0.71934 0.79375 0.69453 0.79375 1.8355 0 1.1162-0.79375 1.8356-0.76894 0.69453-2.6045 0.69453h-11.906q-1.8356 0-2.6293-0.69453-0.76894-0.71933-0.76894-1.8604 0-1.1162 0.76894-1.8107 0.79375-0.71934 2.6293-0.71934h3.3982v-19.893h-5.5066v4.8121q0 1.8356-0.71933 2.6293-0.69453 0.76894-1.8356 0.76894-1.1162 0-1.8356-0.76894-0.69453-0.79375-0.69453-2.6293v-9.9219l26.343 0.0248v9.8971q0 1.8356-0.71934 2.6293-0.69453 0.76894-1.8355 0.76894-1.1162 0-1.8356-0.76894-0.69453-0.79375-0.69453-2.6293v-4.8121z"/>
    <path d="m220.41 440.14h-20.861q0.79375 1.9844 2.8029 3.1998 2.034 1.2154 5.4818 1.2154 2.8277 0 7.5158-1.2154 1.9348-0.4961 2.6789-0.4961 1.017 0 1.7115 0.71934t0.69453 1.8107q0 0.99219-0.74414 1.6867-0.99219 0.91777-4.8369 1.7611-3.8447 0.81856-7.3918 0.81856-6.102 0-9.773-3.4478-3.6463-3.4479-3.6463-8.4832 0-5.3578 3.9439-8.7064 3.9688-3.3734 9.1281-3.3734 3.1006 0 5.6803 1.0914 2.6045 1.0914 3.8695 2.3564 1.7859 1.8356 2.9518 4.5393 0.79375 1.8852 0.79375 4.3656zm-5.6307-5.085q-1.1658-2.1828-3.051-3.2494-1.8852-1.0914-4.4896-1.0914-2.5797 0-4.4648 1.0914-1.8852 1.0666-3.0758 3.2494z"/>
    <path d="m243.62 432.26q-1.2402-0.76894-2.6045-1.141-1.3643-0.39688-2.8525-0.39688-2.9518 0-4.6881 0.96738-0.76894 0.42168-0.76894 0.91778 0 0.57051 1.0418 1.1162 0.79375 0.39687 3.5471 0.76894 5.0602 0.69454 7.0445 1.3891 2.6045 0.91777 4.0184 2.7285 1.4139 1.8107 1.4139 3.8199 0 2.7285-2.406 4.5641-3.4479 2.6541-8.9545 2.6541-2.2076 0-4.0928-0.39688-1.8604-0.37207-3.423-1.1162-0.37207 0.32246-0.79375 0.4961-0.42168 0.17363-0.86816 0.17363-1.1906 0-1.91-0.76895-0.69453-0.79375-0.69453-2.6293v-1.7115q0-1.8355 0.69453-2.6045 0.71933-0.79375 1.8604-0.79375 0.91777 0 1.5379 0.5209 0.62012 0.49609 0.96738 1.7363 1.1658 0.99218 2.8029 1.5131 1.6371 0.4961 3.7703 0.4961 3.4975 0 5.4322-1.0914 0.91777-0.5457 0.91777-1.141 0-0.99219-1.3146-1.6371-1.3146-0.64493-5.4322-1.0914-6.1268-0.64492-8.1856-2.4805-2.0588-1.8107-2.0588-4.4648 0-2.7285 2.3068-4.5393 3.1254-2.4805 8.1856-2.4805 1.7611 0 3.3734 0.34727 1.6371 0.32246 3.1254 1.017 0.47129-0.34727 0.86817-0.5209 0.42168-0.17363 0.76894-0.17363 1.0418 0 1.7363 0.79375 0.69453 0.76894 0.69453 2.6045v1.2402q0 1.6619-0.39687 2.2572-0.79375 1.141-2.158 1.141-0.91777 0-1.6123-0.57051-0.69454-0.57051-0.89297-1.5131z"/>
    <path d="m267.36 431.39v10.195q0 1.6371 0.66972 2.158 1.0418 0.81856 3.7207 0.81856 3.8943 0 7.1934-1.6619 1.265-0.64492 1.9844-0.64492 0.99219 0 1.7115 0.74414 0.74414 0.74414 0.74414 1.8107 0 0.99219-0.79375 1.7115-1.2154 1.1658-4.8121 2.158-3.5719 0.96739-6.0275 0.96739-4.7377 0-7.1189-2.034-2.3564-2.0588-2.3564-5.0354v-11.187h-1.8355q-1.8356 0-2.6293-0.69453-0.76894-0.71934-0.76894-1.8604 0-1.1162 0.76894-1.8108 0.79375-0.71933 2.6293-0.71933h1.8355v-4.5889q0-1.8356 0.69454-2.6045 0.71933-0.79375 1.8604-0.79375 1.1162 0 1.8107 0.79375 0.71934 0.76894 0.71934 2.6045v4.5889h9.401q1.8356 0 2.6045 0.71933 0.79375 0.69453 0.79375 1.8356 0 1.1162-0.79375 1.8356-0.76894 0.69453-2.6045 0.69453z"/>
   </g>
   <g aria-label="GENERATOR" style="fill: #56645e;">
    <path d="m209.64 457.47-0.0423 0.86784-0.5715 0.80433-0.21167 0.23283-0.127 0.0847-0.14817 0.10583-0.10583 0.0423-0.10583 0.0635-0.76201-0.42334-0.0212-0.16933 0.0423-0.127q0.0847-0.40217-0.1905-0.59267-0.254-0.21166-1.0795-0.35983-0.42333-0.0635-0.86784-0.0635-1.4605 0-2.9845 0.762-1.5028 0.74083-3.0692 2.3495-0.86784 0.91017-1.5663 1.9473-0.78317 1.143-1.2277 2.1802-0.42333 1.0372-0.59266 1.9897-0.14817 0.93133-0.14817 1.397 0 0.29634 0.0635 0.52917 0.29633 1.524 1.5875 1.524 0.71967 0 1.778-0.61383 0.59267-0.33867 1.1007-0.71967t1.524-1.27l1.2065-1.0583 0.27516-0.23283 0.82551-0.67734q0.99483-0.8255 1.7145-0.97366 0.29633-0.0635 0.52917-0.0635 0.127 0 0.27516 0.0212 0.0423 0 0.29634 0.0635l0.254 0.0846 0.0635 0.0847 0.0847 0.10583 0.0847 0.0847 0.10583 0.0847 0.0212 0.42334 0.0635 0.65617q0.16934 1.5452 0.46567 2.4765 0.3175 0.91017 0.86783 1.6087l-0.16933 0.4445-0.254 0.254-0.35983 0.21167h-0.65617q-0.55034-0.381-0.86784-0.889-0.29633-0.52917-0.508-1.5663l-0.35983-1.778-0.0635-0.35984q-0.3175 0.10584-0.55034 0.21167-0.23283 0.10583-0.635 0.381l-0.889 0.6985-0.381 0.29634-0.93133 0.67733q-1.27 0.93133-1.9685 1.3547-0.6985 0.40217-1.4182 0.67733-1.016 0.381-1.8627 0.381-1.3123 0-2.0743-0.80433-0.762-0.80434-0.762-2.2013 0-1.4393 0.48683-3.0903 0.5715-1.9473 1.7357-3.7677 1.6933-2.6882 4.2757-4.2545 2.4553-1.4817 4.8895-1.4817 0.27517 0 0.46567 0 0.21167 0 0.65617 0.0847 1.397 0.21167 1.9685 0.48684 0.5715 0.27516 0.8255 0.80433z"/>
    <path d="m212.92 459.2q-0.3175-0.0212-0.55033-0.23283l-0.0635-0.0847-0.0423-0.0847-0.0635-0.127-0.10583-0.29633q-0.0847-0.23283-0.0847-0.40217 0-0.21167 0.127-0.40217l0.635-0.46566h0.14817l0.127 0.0847q0.29634 0.127 0.8255 0.127l0.508-0.0423 0.254-0.0212 0.86784-0.0847 0.59267-0.0635 0.59266-0.0847 2.5612-0.33867 0.38101-0.0423 1.397-0.16933q0.55033-0.0635 0.93133-0.0635 0.74084 0 1.9897 0.42333l0.48684 0.16933 0.16933 0.33867 0.0847 0.35983-0.0635 0.16934-0.1905 0.16933q-0.10584 0.0847-0.1905 0.14817-0.0635 0.0423-0.40217 0.21167l-0.35984-0.10584-0.59266-0.14816-0.27517-0.0847q-0.381-0.0847-0.635-0.127t-0.635-0.0423q-0.91017 0-4.3603 0.65616-0.55034 0.0847-1.1218 0.23284-0.55033 0.127-1.4182 0.33866l-0.254 1.2488-0.65616 3.0692-0.0635 0.42333q-0.1905 0.97367-0.42334 2.7093l0.9525-0.16933q3.0903-0.61384 4.8472-0.84667 2.1802-0.29633 4.1487-0.29633l1.2277-0.0424 0.127 0.0212 0.0635 0.0423 0.0423 0.35984-1.1853 0.84667-0.33867 0.0212h-0.21167q-0.5715 0-1.143 0.0635-0.55033 0.0635-0.889 0.10584-2.0955 0.23283-3.81 0.5715-1.6933 0.33866-2.9845 0.74083l-0.29633 0.10583-0.46567 0.16934 0.0635 0.27517q0.254 1.27 1.2065 2.032t2.3072 0.762q1.4182 0 2.9845-0.91017l0.59266-0.381 0.23284-0.16933 0.16933-0.127q0.14817-0.0423 0.42333-0.0635 0.29634-0.0212 0.44451-0.0212 0.42333 0.1905 0.42333 0.71967 0 0.14817-0.0635 0.35983-0.0635 0.1905-0.23283 0.35984-0.14817 0.16933-0.52917 0.381-0.14817 0.0847-0.52917 0.254-0.80433 0.35983-1.5663 0.5715-0.762 0.23283-1.3547 0.3175-0.59267 0.0847-1.2065 0.0847-2.286 0-3.5772-1.4393t-1.2912-3.81q0-1.1007 0.29634-2.794 0.29633-1.7145 0.48683-2.8787l0.29633-1.5663 0.0847-0.4445z"/>
    <path d="m226.53 470.83 0.6985-3.1538q0.48683-2.2437 0.6985-2.8152 0.23283-0.5715 0.65617-0.5715 0.1905 0 0.29633 0.0847l0.0635 0.14816 0.0847 0.16934 0.21166 0.381-0.16933 1.2065q-0.23283 1.4605-0.4445 2.5188-0.1905 1.0372-0.27517 1.524l-0.10583 1.016-0.80433 0.42333-0.127-0.0212q-0.48684-0.127-0.65617-0.27517-0.14817-0.127-0.14817-0.4445v-0.10583zm0.84667-11.24 0.10583-0.0847q0.46567-0.381 0.8255-0.381 0.254 0 0.508 0.1905l0.10583 0.10584 0.14817 0.33866 0.0847 0.23284 0.127 0.33867 0.48683 1.3758 0.6985 1.651q0.40217 0.95251 0.67734 1.5663 0.29633 0.61383 0.48683 0.97367 0.762 1.4605 1.2065 2.2225 0.381 0.67734 0.61384 0.97367 0.52917 0.67733 0.84667 0.9525 0.55033 0.48684 1.143 0.48684 1.0372 0 1.6722-1.3547 0.52916-1.1007 1.016-2.9422 0.16933-0.61384 0.29633-1.27 0.14817-0.65616 0.23284-1.3335 0.16933-1.0583 0.23283-1.7992 0.0635-0.74083 0.0635-1.524 0-1.1218-0.1905-1.7992-0.1905-0.6985-0.635-1.397l-0.0635-0.127-0.0847-0.10584 0.27517-0.55033 0.55033-0.29633q0.35984-0.0423 0.59267 0.0423l0.71967 0.59267 0.127 0.40216q0.23283 0.78317 0.35983 1.5875 0.127 0.78316 0.127 1.6933 0 0.78317-0.10583 1.7357-0.10583 0.93134-0.3175 2.2648-0.127 0.67733-0.29633 1.3335-0.16934 0.65617-0.38101 1.3123-0.61383 1.7568-1.1642 2.667-0.635 1.0795-1.4817 1.6722-0.8255 0.5715-1.7145 0.5715-0.8255 0-1.6087-0.4445-0.76201-0.4445-1.4605-1.3758-0.61383-0.8255-1.0795-1.6087-0.46567-0.78317-1.1218-2.2225l-0.5715-1.2277-0.31751-0.6985-0.67733-1.5663q-0.55033-1.3123-0.65617-1.6087-0.27516-0.74084-0.40216-1.5663z"/>
    <path d="m244.44 459.2q-0.3175-0.0212-0.55034-0.23283l-0.0635-0.0847-0.0423-0.0847-0.0635-0.127-0.10583-0.29633q-0.0847-0.23283-0.0847-0.40217 0-0.21167 0.127-0.40217l0.635-0.46566h0.14817l0.127 0.0847q0.29633 0.127 0.8255 0.127l0.508-0.0423 0.254-0.0212 0.86783-0.0847 0.59267-0.0635 0.59267-0.0847 2.5612-0.33867 0.381-0.0423 1.397-0.16933q0.55034-0.0635 0.93134-0.0635 0.74083 0 1.9897 0.42333l0.48683 0.16933 0.16934 0.33867 0.0847 0.35983-0.0635 0.16934-0.1905 0.16933q-0.10583 0.0847-0.1905 0.14817-0.0635 0.0423-0.40217 0.21167l-0.35983-0.10584-0.59267-0.14816-0.27516-0.0847q-0.38101-0.0847-0.63501-0.127t-0.635-0.0423q-0.91016 0-4.3603 0.65616-0.55033 0.0847-1.1218 0.23284-0.55034 0.127-1.4182 0.33866l-0.254 1.2488-0.65617 3.0692-0.0635 0.42333q-0.1905 0.97367-0.42333 2.7093l0.9525-0.16933q3.0903-0.61384 4.8472-0.84667 2.1802-0.29633 4.1487-0.29633l1.2277-0.0424 0.127 0.0212 0.0635 0.0423 0.0423 0.35984-1.1853 0.84667-0.33866 0.0212h-0.21167q-0.5715 0-1.143 0.0635-0.55034 0.0635-0.889 0.10584-2.0955 0.23283-3.81 0.5715-1.6933 0.33866-2.9845 0.74083l-0.29633 0.10583-0.46567 0.16934 0.0635 0.27517q0.254 1.27 1.2065 2.032 0.9525 0.762 2.3072 0.762 1.4182 0 2.9845-0.91017l0.59267-0.381 0.23283-0.16933 0.16934-0.127q0.14816-0.0423 0.42333-0.0635 0.29633-0.0212 0.4445-0.0212 0.42333 0.1905 0.42333 0.71967 0 0.14817-0.0635 0.35983-0.0635 0.1905-0.23283 0.35984-0.14817 0.16933-0.52917 0.381-0.14816 0.0847-0.52916 0.254-0.80434 0.35983-1.5663 0.5715-0.762 0.23283-1.3547 0.3175-0.59267 0.0847-1.2065 0.0847-2.286 0-3.5772-1.4393t-1.2912-3.81q0-1.1007 0.29633-2.794 0.29634-1.7145 0.48684-2.8787l0.29633-1.5663 0.0847-0.4445z"/>
    <path d="m258.41 460.18q0.27516-0.3175 0.67733-0.4445l0.27517-0.0423v-0.10583l0.0212-0.10583 0.0423-0.254q0.1905-0.78317 0.381-1.1007 0.21167-0.3175 0.67733-0.61384l0.40217-0.27516 0.29633-0.16934q1.6298-0.9525 2.9845-1.4182 1.5452-0.52916 2.9633-0.52916 0.381 0 0.762 0t0.74083-0.0212q0.3175 0 0.55034 0 0.23283 0 0.67733 0.0847 1.3758 0.21166 2.1378 0.99483 0.78317 0.762 0.78317 1.8838 0 0.9525-0.55034 1.9262-0.74083 1.3123-2.0955 2.5188-1.4817 1.3335-3.937 2.7517l-0.61383 0.35983-0.16934 0.0847-0.254 0.10583q0.52917 0.10583 1.143 0.33867 0.635 0.23283 1.2277 0.59267 0.61384 0.35983 1.9473 1.3758l0.42333 0.254q0.99484 0.48684 1.6722 0.48684 0.71967 0 1.0583-0.508 0.23283-0.19051 0.52917-0.35984 0.3175-0.1905 0.61383-0.33867l0.33867 0.14817q0.33867 0.4445 0.33867 0.9525l-0.0423 0.4445q-0.91017 1.2065-2.5612 1.2065-0.74083 0-1.5452-0.254-0.78317-0.27516-1.6722-0.8255l-1.1642-0.74083q-1.5875-1.016-2.667-1.3547-1.0583-0.33867-2.4553-0.33867l-0.42333 0.0212-0.254-0.0635q-0.3175-0.10583-0.52917-0.4445 0.0212-0.21167 0.10583-0.48684 0.0847-0.27516 0.14817-0.48683l0.1905-0.127 0.1694-0.0846 0.16933-0.0212h0.14817q0.33866-0.0635 0.59266-0.127 0.27517-0.0635 0.86784-0.254 0.61383-0.1905 0.78317-0.27517 0.1905-0.0847 0.65616-0.29633 2.4553-1.1218 3.8735-2.4553 1.2912-1.2277 1.6933-2.5612 0.127-0.4445 0.127-0.86784 0-0.91017-0.67734-1.4182-0.67733-0.508-2.0955-0.508-0.42334 0-0.99484 0.0635-0.55033 0.0423-1.5663 0.35984-1.7568 0.5715-2.6458 1.016-0.86783 0.4445-1.5875 1.0795l-0.0423 0.254-0.14816 0.71967q-0.40217 1.9897-0.52917 3.429l-0.0423 0.65617-0.0635 0.889q-0.0847 1.7357-0.0847 2.3707 0 0.78317 0.0212 1.4393 0.0212 0.635 0.0847 0.91017l0.0212 0.27516 0.127 0.69851 0.0423 1.2277 0.0212 0.59267-0.381 0.23284h-0.80434l-0.254-0.0212-0.21166-0.127-0.1694-0.127q-0.1905-1.8627-0.27516-4.1487-0.0635-2.3072-0.0635-5.6092l0.0423-1.3123z"/>
    <path d="m281.39 457.55-0.127-0.10584-0.127-0.10583-0.1694-0.1694-0.127-0.21167q0-0.27517 0.0212-0.46567t0.10583-0.381l0.97367-0.74083q0.508 0.0635 0.889 0.35983 0.1905 0.21167 0.35983 0.48684 0.1905 0.27516 0.63501 1.1853l0.42333 0.889q0.80433 1.5875 1.4182 2.6247 0.635 1.016 1.7145 2.5612l1.1853 1.7145 0.0635 0.127 0.16933 0.254 1.5452-0.16934 0.14817 0.16934 0.16933 0.14816 0.16933 0.1905 0.1905 0.1905-0.1905 0.48684-0.1905 0.254h-0.508l-0.254 0.0212-0.254-0.0212 0.1905 0.254q1.27 1.6722 1.4393 3.4925l-0.27517 0.35983q-0.46567-0.0635-0.80433-0.3175l-0.0847-0.23284-0.10584-0.254q-0.27516-0.762-0.67733-1.4817l-0.127-0.1905-0.67733-1.0795-0.27517-0.4445-0.78317 0.0423-0.61383 0.0212q-0.80434 0-2.3495 0.21167-0.91017 0.127-1.7992 0.254-1.7992 0.23283-3.0903 0.46567-1.2912 0.21166-2.6458 0.52917l-0.0212 0.0635-0.127 0.27516q-0.3175 0.74084-0.3175 1.143 0 0.46567 0.40217 1.0795l0.1905 0.3175q0 0.3175-0.1905 0.55033t-0.381 0.33867l-0.21167-0.0423-0.33867-0.0847-0.40216-0.127q-1.2912-0.4445-1.2912-0.9525 0-0.23284 0.0847-0.55034 0.16934-0.55033 0.27517-0.889 0.33867-1.0583 1.2912-2.9422 1.1218-2.2013 2.921-5.1858 0.55034-0.93134 0.95251-1.5452 0.40216-0.61384 0.93133-1.4182l0.29633-0.42333zm-2.9633 9.0594 4.1487-0.40217 4.0217-0.42334 0.762-0.0847-0.29633-0.46567-0.254-0.381-1.5663-2.3072q-0.84666-1.2277-1.6933-2.4765-0.55034-0.76201-1.3547-1.6722l-0.27517 0.42333-0.23283 0.35983q-1.651 2.6035-3.4713 6.4135l-0.3175 0.67734-0.16933 0.40217 0.48683-0.0423z"/>
    <path d="m291.45 457.62q0.0635-0.29634 0.16933-0.508 0.127-0.23284 0.3175-0.42334 0.23283-0.16933 0.508-0.1905l1.1007 0.23284q4.2545 0.84666 7.0062 0.84666 2.4977 0 4.8472-0.67733l0.0847 0.0423 0.0847 0.0212 0.1694 0.0846 0.0635 0.14816 0.0423 0.14817 0.0635 0.23283 0.0635 0.21167-0.16933 0.23284-0.27517 0.10583-0.254 0.127-0.99483 0.33867h-1.0372l-0.52917 0.0847-0.46567 0.0635q-1.143 0.14817-1.5663 0.1905-0.40217 0.0423-0.97367 0.0423l-0.40217 0.0212-0.3175 0.0212q-0.48683 2.2648-0.67733 3.6195-0.1905 1.3335-0.381 2.7305-0.16934 1.397-0.16934 1.9685 0 0.381 0.0212 0.5715 0 0.40217 0.0635 0.76201 0.0635 0.33866 0.1905 0.71966l0.0423 0.127 0.0635 0.14817 0.33867 0.29633 0.14817 0.127 0.14816 0.127 0.0635 0.31751v0.254l-0.16933 0.23283-0.16933 0.254-0.16934 0.23283-0.16933 0.254q-0.508 0-0.889-0.10583l-0.29634-0.40217q-0.9525-1.4182-0.9525-2.4977 0-0.55033 0.127-1.4817l0.23284-1.8627 0.0423-0.254q0.23283-1.651 0.508-3.1115 0.29634-1.4817 0.6985-2.9845l-0.48683-0.0423-0.42334-0.0423-1.016-0.127q-1.397-0.1905-2.2437-0.33867-0.8255-0.16933-1.3335-0.3175l-0.16933-0.0423-0.254-0.10584-0.0847-0.10583-0.0635-0.10584-0.0423-0.10583z"/>
    <path d="m313.61 460.6-0.0423 0.5715-0.61383 0.4445q-1.5663 1.1218-2.54 2.1802-0.9525 1.0372-1.5875 2.286-0.381 0.74083-0.381 1.5028 0 1.2065 0.93133 2.0955 1.016 0.97367 2.8152 1.2277 0.48683 0.0635 0.9525 0.0635 0.46566 0 1.0372-0.10584 1.5875-0.27516 2.6458-1.1853 1.0795-0.93134 1.5875-2.413 0.35983-1.1218 0.35983-2.0532 0-1.6298-1.1007-2.9633-1.1007-1.3335-3.4713-2.5188-0.33866-0.16934-0.889-0.40217-0.52917-0.254-0.93133-0.381l-0.23284-0.33867v-0.762l0.1905-0.1905q0.3175-0.254 0.71967-0.42333l1.3547 0.52916 0.29633 0.38101 0.61384 0.3175q2.5823 1.3758 3.81 2.9845 1.2488 1.6087 1.2488 3.5983 0 1.2277-0.48684 2.7517-0.67733 2.032-2.4553 3.2173-1.778 1.1642-4.4027 1.1642-0.99483 0-2.1167-0.1905-1.9685-0.381-3.0903-1.5663-1.1218-1.1853-1.1218-2.794 0-1.2912 0.71967-2.5823 0.91017-1.6722 2.8575-3.3232l0.99484-0.80434 0.254-0.16933 0.71967-0.48683q0.35983-0.254 0.5715-0.254 0.10583 0 0.29633 0.0635l0.14817 0.0635z"/>
    <path d="m322.54 460.18q0.27517-0.3175 0.67733-0.4445l0.27517-0.0423v-0.10583l0.0212-0.10583 0.0423-0.254q0.1905-0.78317 0.381-1.1007 0.21167-0.3175 0.67734-0.61384l0.40216-0.27516 0.29634-0.16934q1.6298-0.9525 2.9845-1.4182 1.5452-0.52916 2.9633-0.52916 0.381 0 0.762 0t0.74084-0.0212q0.3175 0 0.55033 0t0.67733 0.0847q1.3758 0.21166 2.1378 0.99483 0.78317 0.762 0.78317 1.8838 0 0.9525-0.55034 1.9262-0.74083 1.3123-2.0955 2.5188-1.4817 1.3335-3.937 2.7517l-0.61383 0.35983-0.16933 0.0847-0.254 0.10583q0.52916 0.10583 1.143 0.33867 0.635 0.23283 1.2277 0.59267 0.61383 0.35983 1.9473 1.3758l0.42334 0.254q0.99483 0.48684 1.6722 0.48684 0.71966 0 1.0583-0.508 0.23284-0.19051 0.52917-0.35984 0.3175-0.1905 0.61383-0.33867l0.33867 0.14817q0.33867 0.4445 0.33867 0.9525l-0.0423 0.4445q-0.91016 1.2065-2.5612 1.2065-0.74083 0-1.5452-0.254-0.78316-0.27516-1.6722-0.8255l-1.1642-0.74083q-1.5875-1.016-2.667-1.3547-1.0583-0.33867-2.4553-0.33867l-0.42334 0.0212-0.254-0.0635q-0.3175-0.10583-0.52917-0.4445 0.0212-0.21167 0.10584-0.48684 0.0847-0.27516 0.14816-0.48683l0.1905-0.127 0.1694-0.0846 0.16933-0.0212h0.14817q0.33867-0.0635 0.59267-0.127 0.27516-0.0635 0.86783-0.254 0.61383-0.1905 0.78317-0.27517 0.1905-0.0847 0.65617-0.29633 2.4553-1.1218 3.8735-2.4553 1.2912-1.2277 1.6933-2.5612 0.127-0.4445 0.127-0.86784 0-0.91017-0.67734-1.4182-0.67733-0.508-2.0955-0.508-0.42333 0-0.99483 0.0635-0.55034 0.0423-1.5663 0.35984-1.7568 0.5715-2.6458 1.016-0.86783 0.4445-1.5875 1.0795l-0.0423 0.254-0.14817 0.71967q-0.40217 1.9897-0.52917 3.429l-0.0423 0.65617-0.0635 0.889q-0.0847 1.7357-0.0847 2.3707 0 0.78317 0.0212 1.4393 0.0212 0.635 0.0847 0.91017l0.0212 0.27516 0.127 0.69851 0.0423 1.2277 0.0212 0.59267-0.381 0.23284h-0.80433l-0.254-0.0212-0.10584-0.0635-0.10583-0.0635-0.1694-0.127q-0.1905-1.8627-0.27517-4.1487-0.0635-2.3072-0.0635-5.6092l0.0423-1.3123z"/>
   </g>
  </g>
  <path d="m71.464 418.16v47.833h114.94" fill="none" stroke="#a1b1aa" stroke-width=".30156px"/>
  <path d="m313.6 449.76v-49.227h-149.02" fill="none" stroke="#a1b1aa" stroke-width=".34835px"/>
 </g>
</svg>
